<?xml version="1.0" standalone="no"?>
<!DOCTYPE svg PUBLIC "-//W3C//DTD SVG 20010904//EN"
 "http://www.w3.org/TR/2001/REC-SVG-20010904/DTD/svg10.dtd">
<svg version="1.0" xmlns="http://www.w3.org/2000/svg"
 width="732.000000pt" height="732.000000pt" viewBox="0 0 732.000000 732.000000"
 preserveAspectRatio="xMidYMid meet">
<metadata>
Created by potrace 1.14, written by Peter Selinger 2001-2017
</metadata>
<g transform="translate(0.000000,732.000000) scale(0.100000,-0.100000)"
fill="#000000" stroke="none">
<path d="M698 4195 c-21 -22 -21 -26 -21 -537 0 -283 3 -526 6 -539 4 -14 17
-30 29 -35 14 -6 290 -10 727 -9 l704 0 15 23 c14 21 15 92 15 554 l0 531 -23
17 c-21 16 -79 17 -727 17 l-704 0 -21 -22z m1353 -120 c3 -87 -2 -870 -7
-874 -2 -3 -281 -5 -620 -6 -589 0 -614 1 -620 18 -3 11 -5 62 -5 115 2 154 2
174 2 237 -1 33 -1 69 -1 80 1 40 1 190 1 205 -1 21 0 123 1 135 0 6 -1 15 -2
20 -1 6 -2 28 -1 50 l1 40 625 1 c621 0 625 -1 626 -21z"/>
<path d="M1263 3937 c-12 -5 -24 -19 -27 -31 -3 -11 -6 -134 -6 -272 0 -226 2
-252 18 -267 31 -28 51 -24 137 30 11 7 30 17 43 22 21 10 35 20 67 49 8 7 15
11 15 8 0 -4 35 15 78 42 42 26 85 51 95 55 9 3 17 11 17 17 0 6 4 9 8 6 15
-9 35 41 28 69 -4 14 -18 31 -31 37 -14 6 -25 15 -25 20 0 5 -4 7 -8 4 -5 -3
-20 5 -33 17 -13 12 -25 21 -26 19 -5 -4 -97 51 -101 60 -2 4 -8 8 -13 8 -5 0
-44 21 -87 48 -104 64 -122 71 -149 59z m119 -179 c12 -7 27 -17 34 -23 6 -5
39 -26 72 -45 34 -19 62 -38 62 -42 0 -10 -133 -94 -142 -90 -5 1 -8 -2 -8 -6
0 -5 -11 -14 -24 -20 -25 -11 -25 -10 -28 41 -4 62 2 197 8 197 2 0 14 -6 26
-12z"/>
<path d="M4357 4121 c-4 -7 0 -290 3 -306 6 -26 -2 -25 -27 2 -27 29 -126 77
-137 66 -3 -3 -23 -7 -43 -8 -59 -3 -154 -51 -136 -69 3 -3 2 -6 -4 -6 -15 0
-50 -61 -64 -112 -18 -64 -19 -68 -22 -130 -2 -32 -6 -61 -10 -64 -4 -4 -3
-12 3 -18 5 -7 12 -36 15 -66 4 -30 11 -60 17 -67 6 -7 7 -13 3 -13 -4 0 -2
-6 4 -13 6 -8 8 -17 4 -20 -3 -4 0 -7 7 -7 7 0 11 -3 7 -6 -6 -7 0 -15 51 -69
17 -20 32 -32 32 -29 0 4 7 1 15 -6 8 -7 15 -9 15 -6 0 4 10 2 22 -5 11 -6 37
-11 57 -10 76 1 117 18 160 67 25 27 36 33 39 23 3 -8 8 -16 11 -19 4 -3 14
-17 24 -32 17 -27 20 -28 107 -28 l90 0 1 298 c0 163 0 311 -1 327 -1 17 -2
37 -1 45 3 82 -1 275 -5 279 -8 8 -234 10 -237 2z m-39 -450 c35 -19 54 -67
56 -145 1 -75 -23 -161 -47 -164 -78 -11 -87 -10 -110 8 -13 11 -30 40 -37 65
-24 85 5 235 45 235 8 0 15 4 15 9 0 12 51 7 78 -8z"/>
<path d="M2349 4058 c-1 -7 -3 -210 -3 -451 l-2 -438 226 2 c124 1 230 4 235
8 6 3 15 6 20 8 6 1 21 4 34 7 14 3 28 11 31 17 4 6 10 9 13 7 15 -9 88 62
108 105 24 51 34 162 16 185 -5 6 -7 12 -3 12 3 0 -3 14 -13 30 -20 34 -77 80
-98 80 -7 0 -13 7 -13 15 0 8 7 15 15 15 8 0 15 5 15 10 0 6 5 10 10 10 32 0
80 94 80 158 0 87 -37 150 -108 186 -70 36 -135 44 -359 46 -159 0 -203 -2
-204 -12z m346 -178 c0 -1 9 -3 19 -5 28 -5 49 -30 51 -62 4 -60 -32 -85 -123
-87 -38 -1 -51 2 -47 11 2 7 1 13 -3 13 -10 0 -2 124 9 130 7 5 94 5 94 0z
m33 -342 c22 -2 60 -55 57 -80 -7 -58 -27 -85 -65 -90 -14 -2 -30 -7 -37 -11
-6 -4 -14 -4 -17 1 -3 5 -21 7 -40 6 l-34 -3 -4 65 c-2 36 1 69 7 75 5 6 4 9
-5 9 -13 0 -13 2 0 10 13 9 13 10 0 11 -8 0 -4 4 10 9 14 4 45 5 70 3 25 -2
51 -4 58 -5z"/>
<path d="M3469 3886 c-2 -3 -24 -7 -48 -11 -127 -19 -218 -94 -253 -209 -30
-99 -27 -231 7 -310 19 -45 65 -116 65 -101 0 6 5 2 11 -8 15 -26 117 -74 172
-80 26 -3 52 -9 59 -13 7 -5 8 -3 3 5 -5 10 -3 11 11 4 15 -7 97 -9 107 -3 1
1 18 3 37 6 32 4 48 8 105 30 11 4 22 7 25 6 3 0 5 39 6 88 1 95 -2 99 -53 72
-45 -24 -197 -36 -248 -19 -55 18 -98 84 -69 107 11 10 14 10 14 -1 0 -9 3
-10 8 -4 4 7 75 11 195 10 104 -1 191 3 193 7 6 9 6 119 0 163 -20 144 -125
242 -268 250 -31 1 -60 5 -66 9 -5 3 -11 4 -13 2z m79 -187 c2 -5 10 -9 18 -9
9 0 12 -4 9 -10 -3 -5 -2 -10 4 -10 12 0 23 -33 16 -51 -4 -11 -26 -14 -88
-13 -113 2 -109 1 -105 27 3 24 32 59 62 75 22 11 79 5 84 -9z"/>
<path d="M5152 3878 c-7 -7 -12 -9 -12 -5 0 16 -77 -33 -117 -74 -30 -30 -44
-38 -48 -28 -2 8 -11 32 -18 54 l-14 40 -77 0 c-42 0 -76 3 -76 8 0 5 -6 2
-13 -5 -11 -11 -14 -81 -13 -353 l1 -340 118 -3 c64 -1 117 1 118 5 0 4 2 94
3 198 2 166 4 193 20 218 21 32 62 56 89 52 9 -2 17 0 17 4 0 4 12 6 28 5 15
-1 27 -3 27 -4 0 -1 10 -3 22 -4 27 -3 31 8 39 100 12 136 13 129 -26 130 -20
0 -40 3 -46 7 -6 3 -16 1 -22 -5z"/>
<path d="M5581 3873 c-23 -6 -41 -10 -41 -7 0 2 -18 -7 -40 -21 -22 -14 -42
-25 -46 -25 -12 0 -85 -86 -91 -107 -3 -13 -10 -23 -16 -23 -6 0 -8 -3 -5 -6
3 -3 0 -27 -7 -54 -15 -55 -13 -187 4 -238 22 -73 105 -182 137 -182 6 0 17
-6 23 -14 7 -8 28 -17 49 -22 20 -4 44 -9 52 -11 63 -14 215 4 230 27 3 5 14
10 24 12 45 8 157 151 141 179 -4 5 -2 9 4 9 5 0 8 9 6 20 -2 11 0 20 4 20 12
0 6 181 -7 213 -7 15 -9 27 -6 27 6 0 -64 110 -80 124 -78 71 -236 108 -335
79z m130 -182 c8 0 25 -18 37 -39 18 -33 21 -51 18 -138 -4 -114 -11 -141 -37
-149 -10 -4 -19 -10 -19 -15 0 -12 -39 -20 -46 -9 -3 5 -10 7 -15 3 -21 -13
-62 42 -75 101 -5 23 -5 99 0 135 2 14 4 33 5 42 0 9 12 30 26 46 25 30 27 31
106 23z"/>
<path d="M6119 3856 c-1 -6 -2 -48 -3 -92 l-1 -82 117 1 c65 0 121 -2 124 -6
3 -3 13 -3 22 0 16 5 16 4 1 -8 -9 -8 -29 -32 -45 -54 -16 -22 -35 -44 -41
-48 -7 -4 -13 -14 -13 -22 0 -7 -3 -15 -7 -17 -5 -1 -34 -38 -67 -80 -32 -43
-63 -78 -68 -78 -5 0 -6 -4 -3 -10 3 -5 1 -10 -4 -10 -6 0 -11 -7 -11 -15 0
-8 -5 -15 -11 -15 -6 0 -9 -9 -6 -20 3 -11 2 -20 -1 -20 -4 0 -5 -25 -4 -55
l4 -56 289 1 289 1 -3 92 -2 92 -110 0 c-60 0 -116 4 -122 8 -7 5 -13 4 -13
-1 0 -5 -7 -9 -15 -9 -8 0 -15 5 -15 10 0 10 67 97 85 109 6 5 6 8 0 8 -6 0
-6 3 0 8 10 7 68 80 110 138 11 15 26 33 33 40 6 7 12 17 12 22 0 6 5 12 12
14 8 3 12 31 13 85 l0 80 -272 0 c-193 0 -273 -3 -274 -11z"/>
</g>
</svg>
